<?xml version="1.0" standalone="no"?>
<!DOCTYPE svg PUBLIC "-//W3C//DTD SVG 20010904//EN"
 "http://www.w3.org/TR/2001/REC-SVG-20010904/DTD/svg10.dtd">
<svg version="1.0" xmlns="http://www.w3.org/2000/svg"
 width="567.000000pt" height="277.000000pt" viewBox="0 0 567.000000 277.000000"
 preserveAspectRatio="xMidYMid meet">

<g transform="translate(0.000000,277.000000) scale(0.100000,-0.100000)"
fill="#000000" stroke="none">
<path d="M1 2588 c1 -101 4 -169 5 -153 2 17 8 77 14 135 6 58 13 126 16 153
5 43 4 47 -15 47 -21 0 -21 -3 -20 -182z"/>
<path d="M5166 2532 c-6 -10 -35 -103 -71 -227 -15 -49 -37 -124 -50 -165 -13
-41 -50 -169 -81 -285 -65 -239 -98 -316 -149 -347 -19 -11 -35 -28 -35 -37 0
-16 12 -18 126 -15 139 3 171 14 111 39 -51 21 -67 49 -67 115 1 64 20 162 41
205 l14 30 121 3 c89 2 124 -1 131 -10 12 -15 58 -174 68 -236 8 -49 -9 -83
-51 -104 -54 -26 -21 -33 160 -33 193 0 217 7 144 41 -60 27 -81 77 -208 504
-62 205 -158 494 -173 518 -9 14 -23 16 -31 4z m-15 -348 c32 -94 67 -209 72
-232 8 -33 -21 -43 -116 -40 l-82 3 2 30 c1 17 7 46 12 65 39 132 64 216 68
223 11 18 29 -2 44 -49z"/>
<path d="M3943 2502 c-104 -3 -118 -15 -59 -50 44 -26 90 -89 105 -144 9 -32
12 -143 9 -401 l-3 -357 -25 -24 c-14 -14 -43 -31 -65 -38 -23 -8 -40 -19 -40
-28 0 -23 319 -20 323 3 2 11 -9 19 -33 26 -46 12 -80 52 -94 107 -12 45 -15
512 -5 552 4 12 10 22 14 22 4 0 64 -84 133 -187 110 -164 157 -233 252 -368
70 -101 120 -165 127 -165 24 0 28 75 25 478 -2 489 -4 480 77 527 81 47 66
55 -106 52 -122 -2 -153 -5 -153 -16 0 -8 17 -20 37 -27 42 -14 75 -44 88 -80
13 -32 13 -514 0 -534 -5 -8 -11 -12 -13 -10 -14 15 -192 267 -269 380 -67 99
-156 228 -178 257 -20 26 -37 29 -147 25z"/>
<path d="M3566 2490 c-89 -3 -151 -9 -153 -15 -2 -6 16 -17 39 -25 63 -22 72
-48 70 -204 -1 -165 -9 -222 -30 -231 -32 -13 -256 -18 -284 -6 l-28 11 0 162
c0 224 2 232 56 259 80 38 60 45 -128 42 -207 -2 -188 -1 -188 -13 0 -5 18
-19 40 -30 26 -13 42 -30 47 -48 11 -37 6 -545 -7 -717 -12 -157 -21 -179 -81
-203 -75 -29 -42 -37 151 -37 134 0 184 3 187 12 3 7 -11 18 -29 26 -61 26
-63 33 -61 214 1 203 6 231 39 243 14 6 89 10 166 10 l141 0 -6 -194 c-4 -149
-9 -201 -21 -225 -18 -33 -44 -51 -75 -51 -14 0 -21 -6 -21 -19 0 -18 9 -19
188 -15 103 2 193 4 200 4 29 0 8 29 -30 42 -27 8 -47 22 -55 38 -14 28 -17
433 -5 727 7 152 8 162 30 182 13 11 37 23 53 26 20 5 29 13 29 26 0 16 -6 18
-42 16 -24 -1 -110 -4 -192 -7z"/>
<path d="M2455 2472 c-102 -35 -150 -92 -181 -212 -30 -119 4 -246 85 -315 29
-24 127 -78 170 -93 53 -19 118 -70 135 -107 21 -43 24 -117 7 -167 -7 -20
-30 -53 -52 -72 -35 -33 -45 -36 -97 -36 -74 0 -119 29 -173 112 -21 34 -39
65 -39 69 0 20 -42 119 -51 119 -10 0 -13 -301 -3 -337 9 -31 21 -29 39 7 9
17 20 30 26 30 6 0 36 -12 67 -27 47 -23 70 -28 132 -27 101 0 139 15 197 77
78 83 97 132 101 258 4 100 2 110 -24 164 -47 96 -103 139 -264 204 -62 25
-86 42 -118 88 -46 64 -17 170 58 212 52 29 85 26 146 -10 52 -32 100 -96 125
-166 12 -35 26 -42 35 -19 6 16 -13 242 -21 257 -4 5 -15 -1 -26 -15 l-20 -25
-66 24 c-77 29 -119 31 -188 7z"/>
<path d="M1952 2463 c-129 -3 -143 -5 -140 -21 2 -9 13 -18 25 -20 44 -6 56
-35 61 -145 7 -158 -26 -745 -44 -782 -9 -19 -29 -36 -55 -47 -24 -10 -39 -23
-37 -30 4 -10 46 -12 189 -9 101 1 187 5 192 8 17 10 5 32 -22 38 -16 3 -37
15 -47 27 -18 19 -19 43 -18 357 0 365 13 525 44 561 10 11 32 25 49 31 18 6
30 16 28 23 -4 13 -25 13 -225 9z"/>
<path d="M1220 2450 c-30 -4 -91 -9 -135 -9 -44 -1 -90 -4 -103 -7 -29 -8 -25
-38 5 -42 13 -2 32 -15 44 -30 20 -26 21 -34 15 -167 -15 -349 -36 -684 -45
-708 -11 -28 -23 -38 -66 -52 -16 -5 -30 -17 -30 -25 0 -13 25 -15 180 -11 99
2 184 5 188 8 16 9 0 27 -34 38 -57 19 -60 36 -57 258 4 209 6 216 51 217 34
0 86 -32 107 -65 21 -34 32 -93 51 -280 17 -167 9 -159 165 -163 112 -2 133 0
138 13 4 11 -3 19 -22 25 -80 29 -102 69 -122 226 -13 105 -47 182 -98 221
-24 18 -43 36 -44 40 0 4 21 21 48 36 72 42 104 75 131 137 55 122 18 255 -89
319 -30 18 -57 23 -130 26 -51 2 -118 0 -148 -5z m139 -67 c50 -38 64 -68 69
-147 4 -73 1 -93 -34 -171 -21 -50 -100 -93 -171 -95 -27 0 -31 38 -22 220 8
175 10 186 31 204 28 22 89 17 127 -11z"/>
<path d="M688 2423 c-79 -3 -98 -7 -98 -19 0 -8 11 -20 25 -26 35 -16 42 -53
19 -97 -32 -59 -159 -243 -202 -291 -27 -31 -44 -42 -51 -35 -10 10 1 274 14
351 5 32 36 66 68 78 10 3 17 12 14 19 -3 9 -38 11 -143 9 -76 -2 -147 -6
-156 -8 -27 -8 -21 -28 12 -41 16 -6 34 -22 39 -35 11 -30 6 -153 -19 -488
-33 -426 -27 -396 -89 -428 -72 -36 -53 -42 121 -36 90 3 169 7 176 10 20 6
14 23 -12 30 -14 3 -32 15 -42 25 -20 22 -22 100 -9 297 7 96 9 106 37 138 24
27 37 34 67 34 72 0 85 -39 106 -296 8 -100 19 -192 24 -205 9 -25 10 -25 132
-22 67 1 127 7 132 12 6 6 -5 17 -31 30 -63 32 -84 87 -107 271 -15 129 -37
204 -69 239 -25 28 -75 51 -110 51 -14 0 -27 4 -31 9 -5 10 75 133 143 221 59
74 129 137 182 162 64 30 65 49 3 46 -27 -1 -92 -4 -145 -5z"/>
<path d="M4365 885 c-170 -60 -211 -418 -65 -564 80 -80 205 -51 255 58 21 47
13 67 -12 30 -32 -45 -71 -79 -93 -79 -60 0 -92 44 -124 168 -35 133 -4 292
65 345 25 18 27 18 64 0 30 -14 43 -30 67 -82 16 -35 32 -61 35 -58 7 8 4 157
-3 169 -3 4 -14 3 -25 -3 -13 -6 -25 -7 -32 -1 -7 5 -24 12 -39 16 -14 3 -32
8 -40 11 -7 2 -31 -2 -53 -10z"/>
<path d="M5084 885 c-59 -30 -87 -122 -65 -212 15 -59 49 -96 122 -133 63 -33
89 -65 89 -112 0 -40 -33 -98 -57 -99 -60 -4 -83 13 -120 85 -33 65 -48 50
-37 -35 l9 -64 40 -8 c104 -20 129 -20 158 3 109 86 90 301 -32 357 -97 44
-131 91 -106 149 28 68 102 62 142 -13 10 -18 21 -33 26 -33 4 0 7 26 5 58 -3
55 -4 57 -33 60 -16 1 -48 5 -70 7 -25 4 -51 0 -71 -10z"/>
<path d="M5652 848 c-6 -29 -22 -93 -36 -143 -32 -120 -91 -338 -120 -450 -13
-50 -34 -125 -45 -167 -12 -43 -21 -80 -21 -83 0 -3 54 -5 120 -5 l120 0 0
450 c0 248 -1 450 -3 450 -2 0 -9 -24 -15 -52z"/>
<path d="M4634 878 c-3 -5 1 -17 10 -27 14 -15 16 -52 16 -263 0 -232 -1 -246
-20 -263 -11 -10 -20 -22 -20 -27 0 -11 327 -11 334 1 10 16 19 121 10 121 -5
0 -19 -15 -31 -34 -37 -58 -123 -85 -165 -52 -15 11 -18 30 -18 124 0 64 4
113 10 117 20 12 52 -8 66 -41 23 -54 34 -31 34 67 0 90 -9 109 -31 67 -15
-29 -28 -38 -56 -38 -22 0 -23 3 -23 98 0 63 4 102 12 110 7 7 30 12 51 12 31
0 46 -7 71 -32 18 -18 35 -39 37 -47 3 -8 10 -12 15 -8 10 6 3 101 -8 112 -10
10 -289 12 -294 3z"/>
<path d="M3205 873 c-76 -5 -85 -11 -55 -33 l25 -19 -3 -236 c-3 -239 -9 -285
-37 -285 -8 0 -15 -6 -15 -14 0 -11 19 -14 92 -13 59 1 93 6 95 14 2 6 -5 14
-15 17 -26 9 -32 33 -32 149 0 81 3 99 16 104 43 16 71 -43 83 -175 5 -46 12
-87 17 -92 11 -11 98 -20 124 -13 26 7 26 20 0 28 -25 8 -44 52 -53 120 -4 28
-18 73 -32 101 -31 62 -31 62 -1 85 61 48 74 151 27 216 -38 53 -63 58 -236
46z m141 -54 c28 -31 27 -148 -1 -179 -26 -29 -57 -40 -72 -28 -14 11 -16 72
-7 167 7 58 8 61 34 61 15 0 35 -9 46 -21z"/>
<path d="M3545 869 c-4 -6 2 -17 13 -25 23 -16 43 -79 106 -335 49 -202 61
-239 74 -239 13 0 31 45 46 114 22 99 96 376 112 417 9 21 22 40 30 43 8 3 14
12 14 21 0 12 -13 15 -58 15 -32 0 -61 -3 -65 -6 -3 -4 3 -18 14 -33 19 -26
19 -27 0 -126 -19 -97 -56 -233 -65 -242 -5 -5 -19 44 -37 123 -45 211 -46
217 -20 243 11 11 21 26 21 31 0 14 -177 13 -185 -1z"/>
<path d="M3987 873 c-4 -3 5 -17 19 -30 l26 -24 -4 -233 c-3 -225 -4 -236 -25
-265 -13 -17 -23 -33 -23 -36 0 -3 41 -5 90 -5 93 0 104 6 72 38 -16 16 -20
42 -26 164 -9 191 0 324 25 360 10 15 19 30 19 33 0 7 -165 6 -173 -2z"/>
<path d="M2484 852 c-35 -22 -74 -97 -74 -142 0 -95 39 -156 130 -206 73 -39
97 -102 65 -164 -17 -32 -43 -50 -74 -50 -27 0 -80 66 -93 118 -18 73 -33 45
-29 -54 2 -49 5 -91 7 -93 2 -2 10 2 18 8 11 10 25 9 62 -4 27 -9 59 -13 76
-10 69 16 137 139 125 227 -9 64 -55 129 -112 158 -97 49 -121 89 -90 155 15
30 22 35 51 35 39 0 78 -36 95 -87 17 -53 33 -41 25 20 -3 28 -6 61 -6 73 0
16 -6 21 -27 22 -16 0 -48 3 -73 7 -35 5 -52 2 -76 -13z"/>
<path d="M1858 853 c-51 -3 -68 -8 -68 -18 0 -8 7 -15 15 -15 34 0 38 -38 31
-273 -4 -125 -9 -234 -12 -241 -3 -7 -17 -19 -31 -25 -14 -6 -23 -15 -19 -18
10 -10 176 -11 182 -1 3 5 -4 16 -16 26 -19 16 -21 25 -18 132 3 110 4 115 25
118 34 5 53 -35 64 -139 15 -138 15 -139 94 -139 36 0 65 3 65 6 0 3 -13 18
-28 33 -24 21 -32 42 -45 115 -11 58 -24 97 -37 111 -26 28 -26 30 15 70 79
80 68 214 -20 251 -33 14 -52 14 -197 7z m149 -55 c19 -18 23 -32 23 -84 0
-52 -4 -67 -25 -93 -30 -35 -64 -49 -75 -30 -8 11 -3 189 5 217 7 19 46 14 72
-10z"/>
<path d="M2750 849 c0 -7 7 -17 16 -24 15 -10 16 -39 15 -244 -1 -128 -6 -244
-12 -258 -5 -14 -18 -27 -29 -30 -11 -3 -20 -11 -20 -18 0 -9 42 -13 170 -14
170 -1 170 -1 179 22 14 36 24 137 15 137 -5 0 -18 -17 -29 -37 -26 -49 -78
-83 -125 -83 -60 0 -63 9 -61 163 1 69 4 89 17 94 20 8 64 -35 64 -63 0 -27
18 -42 25 -21 3 7 4 60 3 118 l-3 104 -20 -39 c-23 -45 -45 -62 -69 -53 -13 5
-16 22 -16 97 0 114 8 130 61 130 42 0 66 -17 116 -85 l22 -30 0 41 c1 23 -2
56 -5 73 l-6 31 -154 0 c-109 0 -154 -3 -154 -11z"/>
<path d="M1539 808 c-6 -24 -17 -61 -24 -83 -7 -22 -17 -58 -23 -80 -6 -22
-23 -78 -36 -125 -14 -47 -31 -107 -37 -135 -6 -27 -25 -67 -41 -88 -16 -20
-27 -41 -24 -46 6 -9 103 -7 112 2 3 3 -4 19 -17 36 -22 29 -22 30 -5 98 10
37 23 71 29 75 19 12 82 9 101 -5 11 -8 21 -38 29 -86 11 -72 10 -75 -11 -89
-12 -8 -22 -18 -22 -23 0 -5 43 -9 95 -9 94 0 115 8 75 30 -24 13 -42 54 -59
135 -14 69 -41 185 -78 333 -29 112 -45 128 -64 60z m10 -190 c22 -80 20 -100
-14 -109 -37 -11 -55 -5 -55 17 0 24 41 134 50 134 4 0 13 -19 19 -42z"/>
<path d="M725 828 c-188 -66 -227 -493 -53 -584 62 -32 152 -5 202 61 133 175
102 481 -54 525 -42 12 -56 12 -95 -2z m86 -41 c42 -32 63 -226 39 -358 -28
-153 -106 -211 -162 -121 -22 35 -23 47 -23 197 0 172 8 214 52 265 27 32 65
39 94 17z"/>
<path d="M1015 831 c-3 -5 7 -22 21 -36 l27 -27 -7 -211 c-8 -215 -18 -271
-51 -283 -8 -3 -15 -11 -15 -18 0 -8 45 -11 162 -11 l162 0 12 75 c20 124 16
136 -20 63 -30 -58 -76 -102 -113 -109 -59 -11 -63 0 -63 165 0 80 5 191 10
246 9 89 12 102 35 121 14 11 22 23 19 27 -11 11 -172 8 -179 -2z"/>
<path d="M328 813 c-37 -24 -66 -80 -74 -144 -9 -78 20 -139 83 -178 83 -51
92 -60 103 -101 11 -42 0 -79 -35 -114 -22 -21 -68 -20 -87 2 -22 25 -46 73
-53 105 -12 57 -25 25 -25 -63 0 -88 5 -101 27 -79 9 9 21 7 48 -6 70 -33 131
-1 176 92 51 106 16 229 -79 277 -73 37 -96 67 -89 116 7 53 22 70 63 70 26 0
38 -7 57 -32 14 -18 28 -43 32 -55 13 -45 27 -25 21 30 -3 28 -6 59 -6 68 0
11 -9 17 -22 17 -13 0 -43 3 -68 7 -33 4 -52 1 -72 -12z"/>
</g>
</svg>
